<?xml version="1.0" encoding="UTF-8"?>
<svg width="700pt" height="700pt" version="1.1" viewBox="0 -100 700 750" xmlns="http://www.w3.org/2000/svg" xmlns:xlink="http://www.w3.org/1999/xlink">
 
 <g>
  <path d="m157.32 0h105.75c28.441 0 51.672 23.234 51.672 51.672v456.25c0 28.84-23.234 52.074-51.672 52.074h-105.75c-28.441 0-51.672-23.234-51.672-52.074v-456.25c0-28.441 23.234-51.672 51.672-51.672zm105.75 24.836h-105.75c-14.82 0-26.84 12.016-26.84 26.84v456.25c0 15.223 12.016 27.238 26.84 27.238h105.75c14.82 0 26.84-12.016 26.84-27.238v-456.25c0-14.82-12.016-26.84-26.84-26.84z"/>
  <path d="m437.32 0h105.35c28.441 0 51.672 23.234 51.672 51.672v456.25c0 28.84-23.234 52.074-51.672 52.074h-105.35c-28.441 0-52.074-23.234-52.074-52.074v-456.25c0-28.441 23.633-51.672 52.074-51.672zm105.35 24.836h-105.35c-14.82 0-27.238 12.016-27.238 26.84v456.25c0 15.223 12.418 27.238 27.238 27.238h105.35c14.82 0 27.238-12.016 27.238-27.238v-456.25c0-14.82-12.418-26.84-27.238-26.84z"/>
 
 </g>
</svg>
