<?xml version="1.0" encoding="UTF-8"?>
<svg width="700pt" height="600pt" version="1.1" viewBox="0 0 700 600" xmlns="http://www.w3.org/2000/svg" xmlns:xlink="http://www.w3.org/1999/xlink">
 <g>
  <path d="m566.56 288.75c0.015625-22.246-3.5898-44.348-10.684-65.434 0.38672-0.87891 0.71484-1.7812 0.98047-2.7031 2.0117-14.297-1.4219-28.828-9.625-40.715-6.8281-13.172-18.438-23.234-32.445-28.121-28.355-32.293-66.02-55.008-107.81-65.02-6.1094-13.625-25.105-23.32-48.23-23.32s-42.086 9.668-48.211 23.285c-32.414 7.8594-62.477 23.355-87.684 45.191-25.211 21.832-44.836 49.379-57.246 80.336-18.375 0.61328-32.184 27.625-32.184 63.375 0 29.68 9.5117 53.375 23.258 60.883h0.003906c9.9648 42.523 33.102 80.816 66.109 109.41 33.008 28.602 74.207 46.047 117.71 49.855 43.512 3.8086 87.109-6.2188 124.59-28.648 3.3906 2.168 7.3516 3.2773 11.375 3.1836 4.332-0.085938 8.6172-0.90625 12.668-2.4336 22.027-9.168 39.535-26.676 48.703-48.703 3.5117-7.6328 3.1875-16.484-0.875-23.844 19.363-32.18 29.594-69.027 29.594-106.58zm-30.547-102.09c6.293 8.8789 9.1914 19.719 8.1641 30.555-0.21484 1.332-0.95703 2.5195-2.0547 3.2969-4.4375 2.4688-17.895-5.1641-28.141-22.18-6.293-8.8789-9.1914-19.719-8.1641-30.555 0.21484-1.332 0.95703-2.5195 2.0547-3.2969 0.62109-0.31641 1.3086-0.46875 2.0039-0.44922 5.6641 0 17.141 7.6836 26.137 22.629zm-177.27-110.1c21.875 0 37.188 10.379 37.188 19.688s-15.312 19.688-37.188 19.688-37.188-10.379-37.188-19.688 15.312-19.688 37.188-19.688zm-212.2 199.06c0-31.168 11.473-50.312 19.695-50.312 8.2266 0 19.688 19.145 19.688 50.312s-11.473 50.312-19.688 50.312-19.695-19.137-19.695-50.312zm24.203 62.824c16.414-4.0078 28.305-29.637 28.305-62.824 0-27.957-8.4531-50.539-20.922-59.379 11.395-28.059 29.133-53.098 51.82-73.156 22.691-20.059 49.715-34.594 78.957-42.465 3.2188 16.238 23.922 28.402 49.875 28.402s46.551-12.129 49.812-28.332h0.003906c34.652 9.2148 66.09 27.812 90.848 53.75-3.1133 2.5273-5.3203 6.0078-6.2734 9.9062-2.0117 14.297 1.4258 28.832 9.625 40.715 10.789 17.945 25.602 28.938 37.574 28.938v-0.003906c1.6562-0.015625 3.3047-0.26953 4.8906-0.75 7.7617 25.688 10.07 52.715 6.7812 79.352-3.2852 26.633-12.098 52.289-25.875 75.32-5.9648-1.1602-12.141-0.58203-17.789 1.6641-22.023 9.168-39.531 26.676-48.699 48.703-2.2422 5.6484-2.8203 11.82-1.6641 17.789-34.609 20.605-74.766 29.941-114.91 26.719-40.148-3.2188-78.305-18.844-109.18-44.703-30.879-25.863-52.957-60.684-63.172-99.645zm354.76 76.301c-7.8242 18.336-22.43 32.941-40.766 40.766-5.9844 2.1523-10.945 2.2305-12.977 0.22656-0.050782-0.097657-0.050782-0.21875-0.12109-0.31641-0.070313-0.097656-0.10547-0.097656-0.14844-0.15625-1.7109-4.0352-1.5352-8.625 0.48047-12.52 7.8242-18.336 22.43-32.941 40.766-40.766 2.6328-1.0156 5.4141-1.582 8.2344-1.6719 1.5117-0.078125 3.0117 0.33594 4.2695 1.1797 0.070313 0.042968 0.10547 0.11328 0.17578 0.15625 0.070312 0.042968 0.22656 0.097656 0.33203 0.15625 1.9766 2.0352 1.8633 6.9766-0.24609 12.945z"/>
  <path d="m419.81 264.08c-11.023 0-21.598 4.3789-29.391 12.176-7.793 7.793-12.172 18.367-12.172 29.387 0 11.023 4.3789 21.598 12.172 29.391 7.793 7.793 18.367 12.172 29.391 12.172 11.023 0 21.594-4.3789 29.387-12.172 7.7969-7.793 12.176-18.367 12.176-29.391-0.015625-11.016-4.3984-21.582-12.191-29.371-7.7891-7.793-18.352-12.176-29.371-12.191zm0 70c-7.543 0-14.777-2.9961-20.109-8.3281-5.332-5.332-8.3281-12.566-8.3281-20.109 0-7.5391 2.9961-14.773 8.3281-20.105 5.332-5.3359 12.566-8.332 20.109-8.332 7.5391 0 14.773 2.9961 20.105 8.332 5.3359 5.332 8.332 12.566 8.332 20.105-0.011719 7.5391-3.0078 14.77-8.3398 20.102-5.332 5.3281-12.559 8.3281-20.098 8.3359z"/>
  <path d="m305.38 386.9c-18.734-8.3398-39.227-3.3086-45.684 11.227-6.5703 14.762 3.2031 32.98 22.25 41.449 5.8789 2.6719 12.25 4.082 18.707 4.1367 5.5078 0.36719 11.004-0.89063 15.801-3.6211 4.8008-2.7305 8.6875-6.8125 11.188-11.734 3.1992-7.8672 2.418-16.793-2.1016-23.984-4.7305-7.7852-11.781-13.895-20.16-17.473zm10.273 36.121c-3.5 7.7773-16.449 9.8711-28.367 4.5664-11.918-5.3008-19.043-16.336-15.586-24.133 1.5352-2.5586 3.7656-4.625 6.4375-5.9531 2.6719-1.3281 5.6641-1.8633 8.6328-1.5469 4.5859 0.046875 9.1172 1.0469 13.297 2.9336 5.832 2.4727 10.758 6.6797 14.113 12.047 2.3594 3.5742 2.9102 8.0469 1.4883 12.086z"/>
  <path d="m299.98 185.94c-8.7031 0-17.047 3.457-23.203 9.6094-6.1523 6.1562-9.6094 14.5-9.6094 23.203s3.457 17.047 9.6094 23.203c6.1562 6.1523 14.5 9.6094 23.203 9.6094 8.7031 0 17.047-3.457 23.203-9.6094 6.1523-6.1562 9.6094-14.5 9.6094-23.203-0.007812-8.6992-3.4688-17.039-9.6211-23.191-6.1523-6.1523-14.492-9.6133-23.191-9.6211zm0 52.5c-5.2227 0-10.23-2.0742-13.922-5.7656-3.6914-3.6914-5.7656-8.6992-5.7656-13.922s2.0742-10.23 5.7656-13.922c3.6914-3.6914 8.6992-5.7656 13.922-5.7656 5.2227 0 10.23 2.0742 13.922 5.7656 3.6914 3.6914 5.7656 8.6992 5.7656 13.922-0.003906 5.2188-2.082 10.227-5.7734 13.918-3.6875 3.6875-8.6953 5.7656-13.914 5.7695z"/>
 </g>
</svg>
