<?xml version="1.0" encoding="UTF-8"?>
<svg width="700pt" height="600pt" version="1.1" viewBox="0 0 700 600" xmlns="http://www.w3.org/2000/svg" xmlns:xlink="http://www.w3.org/1999/xlink">
 <g>
  <path d="m271.11 201.11c-20.926 20.926-32.68 49.301-32.68 78.895 0 29.59 11.754 57.969 32.676 78.895 20.926 20.922 49.305 32.68 78.895 32.68s57.969-11.758 78.895-32.68c20.922-20.926 32.676-49.305 32.676-78.895 0-29.594-11.754-57.969-32.68-78.895-20.941-20.887-49.312-32.613-78.891-32.613s-57.949 11.727-78.891 32.613zm148.5 148.5c-18.457 18.441-43.48 28.797-69.574 28.789-26.09-0.007812-51.109-10.379-69.555-28.832-18.445-18.449-28.809-43.473-28.809-69.562s10.363-51.113 28.809-69.562c18.445-18.453 43.465-28.824 69.555-28.832 26.094-0.007813 51.117 10.348 69.574 28.789 18.438 18.473 28.789 43.508 28.789 69.605s-10.352 51.133-28.789 69.605z"/>
  <path d="m569 273.63-32.629-8.1523c-9.0742-2.2695-17.035-7.7109-22.441-15.34-5.4062-7.6289-7.9023-16.945-7.0352-26.254 0.86719-9.3125 5.043-18.004 11.766-24.504l24.148-23.363h0.003906c2.168-2.0938 2.6367-5.3906 1.1289-8.0039-1.5039-2.6094-4.5938-3.8594-7.4922-3.0312l-32.312 9.2383v0.003906c-8.9922 2.5664-18.605 1.8359-27.102-2.0703-8.4961-3.9062-15.312-10.723-19.219-19.219-3.9023-8.4961-4.6367-18.109-2.0664-27.102l9.2383-32.312c0.83203-2.8984-0.42188-5.9883-3.0312-7.4922-2.6094-1.5039-5.9102-1.0391-8.0039 1.1328l-23.363 24.148h0.003906c-6.5 6.7148-15.188 10.883-24.488 11.75-9.3047 0.86719-18.613-1.625-26.238-7.0234-7.6289-5.3984-13.07-13.348-15.348-22.41l-8.1562-32.602h0.003906c-0.73828-2.918-3.3633-4.957-6.3711-4.957s-5.6328 2.0391-6.3711 4.957l-8.1523 32.602c-2.2695 9.0742-7.7109 17.035-15.34 22.441-7.6289 5.4062-16.945 7.9023-26.254 7.0352-9.3125-0.86719-18.004-5.043-24.504-11.766l-23.363-24.148v-0.003906c-2.0938-2.168-5.3906-2.6367-8.0039-1.1289-2.6094 1.5039-3.8594 4.5938-3.0312 7.4922l9.2383 32.312h0.003906c2.5664 8.9922 1.8359 18.605-2.0703 27.102-3.9062 8.4961-10.723 15.312-19.219 19.219-8.4961 3.9023-18.109 4.6367-27.102 2.0664l-32.312-9.2383c-2.8984-0.83203-5.9883 0.42188-7.4922 3.0312-1.5039 2.6094-1.0391 5.9102 1.1328 8.0039l24.148 23.363v-0.003906c6.7148 6.5 10.883 15.188 11.75 24.488 0.86719 9.3047-1.625 18.613-7.0234 26.238-5.3984 7.6289-13.348 13.07-22.41 15.348l-32.602 8.1562v-0.003906c-2.918 0.73828-4.957 3.3633-4.957 6.3711s2.0391 5.6328 4.957 6.3711l32.602 8.1562v-0.003906c9.0742 2.2695 17.035 7.7109 22.441 15.34 5.4062 7.6289 7.9023 16.945 7.0352 26.254-0.86719 9.3125-5.043 18.004-11.766 24.504l-24.148 23.363h-0.003906c-2.1602 2.0938-2.6172 5.3867-1.1172 7.9922 1.5039 2.6055 4.5859 3.8555 7.4805 3.0352l32.312-9.2305v-0.003906c8.9922-2.5664 18.605-1.8359 27.102 2.0703 8.4961 3.9062 15.312 10.723 19.219 19.219 3.9023 8.4961 4.6367 18.109 2.0664 27.102l-9.2383 32.312c-0.83203 2.8984 0.42188 5.9883 3.0312 7.4922 2.6094 1.5039 5.9102 1.0391 8.0039-1.1328l23.363-24.148h-0.003906c6.5-6.7148 15.188-10.883 24.488-11.75 9.3047-0.86719 18.613 1.625 26.238 7.0234 7.6289 5.3984 13.07 13.348 15.348 22.41l8.1562 32.602h-0.003906c0.73828 2.918 3.3633 4.957 6.3711 4.957s5.6328-2.0391 6.3711-4.957l8.1523-32.602c2.2695-9.0742 7.7109-17.035 15.34-22.441 7.6289-5.4062 16.945-7.9023 26.254-7.0352 9.3125 0.86719 18.004 5.043 24.504 11.766l23.363 24.148v0.003906c2.0938 2.168 5.3906 2.6367 8.0039 1.1289 2.6094-1.5039 3.8594-4.5938 3.0312-7.4922l-9.2383-32.312h-0.003906c-2.5664-8.9922-1.8359-18.605 2.0703-27.102 3.9062-8.4961 10.723-15.312 19.219-19.219 8.4961-3.9023 18.109-4.6367 27.102-2.0664l32.312 9.2305c2.8945 0.82031 5.9766-0.42969 7.4766-3.0352 1.5039-2.6055 1.043-5.8984-1.1172-7.9922l-24.148-23.363v0.003906c-6.7148-6.5-10.883-15.188-11.75-24.488-0.86719-9.3047 1.625-18.613 7.0234-26.238 5.3984-7.6289 13.348-13.07 22.41-15.348l32.602-8.1562v0.003906c2.918-0.73828 4.957-3.3633 4.957-6.3711s-2.0391-5.6328-4.957-6.3711zm-35.797 8.1641c-12.109 3.0352-22.73 10.309-29.945 20.496-7.2109 10.188-10.543 22.621-9.3828 35.051 1.1602 12.43 6.7305 24.035 15.703 32.715l5.3125 5.1367-7.1055-2.0312c-12.004-3.4297-24.84-2.4492-36.184 2.7656-11.344 5.2148-20.445 14.316-25.66 25.66-5.2148 11.344-6.1953 24.18-2.7656 36.184l2.0312 7.1055-5.1367-5.3125v0.003906c-8.6797-8.9766-20.285-14.543-32.715-15.703-12.43-1.1602-24.863 2.168-35.055 9.3828-10.188 7.2109-17.457 17.836-20.492 29.945l-1.75 7.168-1.75-7.168c-2.2031-9.0742-6.8203-17.379-13.367-24.031-6.543-6.6562-14.77-11.41-23.805-13.762-4.5078-1.2188-9.1562-1.8359-13.824-1.8477-14.082 0.019531-27.547 5.793-37.266 15.988l-5.1367 5.3125 2.0312-7.1055c3.4297-12.004 2.4453-24.84-2.7656-36.184-5.2148-11.344-14.316-20.449-25.66-25.66-11.344-5.2148-24.18-6.1953-36.188-2.7656l-7.1055 2.0312 5.3125-5.1367v-0.003906c8.9727-8.6758 14.543-20.281 15.703-32.711 1.1602-12.43-2.168-24.867-9.3828-35.055s-17.836-17.457-29.945-20.496l-7.1758-1.75 7.1758-1.75c12.109-3.0352 22.73-10.305 29.945-20.492 7.2148-10.191 10.543-22.625 9.3828-35.055-1.1602-12.43-6.7305-24.035-15.703-32.711l-5.3125-5.1367 7.1055 2.0312v-0.003906c12.008 3.4297 24.844 2.4492 36.188-2.7656 11.344-5.2109 20.445-14.316 25.66-25.66 5.2109-11.344 6.1953-24.18 2.7656-36.184l-2.0312-7.1055 5.1367 5.3125c8.6797 8.9727 20.281 14.543 32.711 15.703 12.43 1.1602 24.867-2.168 35.055-9.3828s17.457-17.836 20.496-29.945l1.75-7.1758 1.75 7.1758c3.0352 12.109 10.305 22.73 20.492 29.945 10.191 7.2148 22.625 10.543 35.055 9.3828 12.43-1.1602 24.035-6.7305 32.715-15.703l5.1367-5.3125-2.0312 7.1055c-3.4297 12.004-2.4492 24.84 2.7656 36.184 5.2148 11.344 14.316 20.449 25.66 25.66 11.344 5.2148 24.18 6.1953 36.184 2.7656l7.1055-2.0312-5.3125 5.1367v0.003906c-8.9727 8.6758-14.543 20.281-15.703 32.711s2.1719 24.863 9.3828 35.055c7.2148 10.188 17.836 17.457 29.945 20.492l7.1758 1.75z"/>
 </g>
</svg>
